<?xml version="1.0" encoding="UTF-8" standalone="no"?>
<!-- Created with Inkscape (http://www.inkscape.org/) -->

<svg
   width="210mm"
   height="297mm"
   viewBox="0 0 210 297"
   version="1.1"
   id="svg1"
   xml:space="preserve"
   inkscape:version="1.4.2 (f4327f4, 2025-05-13)"
   sodipodi:docname="icono_tAInder_corazon.svg"
   inkscape:export-filename="icono_tAInder_corazon.png"
   inkscape:export-xdpi="96"
   inkscape:export-ydpi="96"
   xmlns:inkscape="http://www.inkscape.org/namespaces/inkscape"
   xmlns:sodipodi="http://sodipodi.sourceforge.net/DTD/sodipodi-0.dtd"
   xmlns="http://www.w3.org/2000/svg"
   xmlns:svg="http://www.w3.org/2000/svg"><sodipodi:namedview
     id="namedview1"
     pagecolor="#ffffff"
     bordercolor="#000000"
     borderopacity="0.25"
     inkscape:showpageshadow="2"
     inkscape:pageopacity="0.0"
     inkscape:pagecheckerboard="0"
     inkscape:deskcolor="#d1d1d1"
     inkscape:document-units="mm"
     inkscape:zoom="1.0093364"
     inkscape:cx="341.31336"
     inkscape:cy="515.68536"
     inkscape:window-width="2560"
     inkscape:window-height="1351"
     inkscape:window-x="-9"
     inkscape:window-y="-9"
     inkscape:window-maximized="1"
     inkscape:current-layer="layer1-5" /><defs
     id="defs1" /><g
     inkscape:label="Capa 1"
     inkscape:groupmode="layer"
     id="layer1"><rect
       style="fill:#2eb298;fill-opacity:1;stroke-width:0;paint-order:stroke fill markers"
       id="rect3"
       width="210.49515"
       height="297.26212"
       x="-0.52427185"
       y="0.26213592" /><rect
       style="fill:#ffffff;fill-opacity:1;stroke-width:1.56629;stroke-dasharray:none;paint-order:stroke fill markers"
       id="rect4"
       width="113.76698"
       height="107.47572"
       x="48.233009"
       y="49.805828"
       ry="19.437101" /><ellipse
       style="fill:#ffffff;fill-opacity:1;stroke-width:0.264583"
       id="path1"
       cx="91.452667"
       cy="101.3483"
       rx="0.55703884"
       ry="1.0813106" /></g><g
     inkscape:groupmode="layer"
     id="layer2"
     inkscape:label="Letra AI"><text
       xml:space="preserve"
       style="font-style:normal;font-variant:normal;font-weight:normal;font-stretch:normal;font-size:50.8px;line-height:0;font-family:'Liberation Sans';-inkscape-font-specification:'Liberation Sans';text-align:start;writing-mode:lr-tb;direction:ltr;text-anchor:start;fill:#ffffff;fill-opacity:1;stroke-width:1.8;stroke-dasharray:none;paint-order:stroke fill markers"
       x="23.330095"
       y="204.9903"
       id="text4"
       inkscape:label="text4"><tspan
         sodipodi:role="line"
         id="tspan4"
         style="font-style:normal;font-variant:normal;font-weight:bold;font-stretch:normal;font-size:50.8px;line-height:0;font-family:'Liberation Sans';-inkscape-font-specification:'Liberation Sans Bold';stroke-width:1.8"
         x="23.330095"
         y="204.9903">t<tspan
   style="font-style:normal;font-variant:normal;font-weight:bold;font-stretch:normal;line-height:0;font-family:'Liberation Sans';-inkscape-font-specification:'Liberation Sans Bold';fill:#006283;fill-opacity:1"
   id="tspan5">AI</tspan>nder</tspan></text><g
       inkscape:label="Capa 1"
       id="layer1-5"
       transform="matrix(0.93926483,0,0,0.97794932,43.777773,39.309094)"><rect
         style="fill:#ffffff;fill-opacity:1;stroke-width:6.76689;paint-order:fill markers stroke"
         id="rect1"
         width="116.53331"
         height="100.3269"
         x="9.4666748"
         y="13.168053"
         ry="19.333414" /><rect
         style="fill:#03bb85;stroke-width:7.1044;paint-order:fill markers stroke"
         id="rect2"
         width="79.763451"
         height="54.649746"
         x="25.905346"
         y="40.421631"
         ry="19.643187" /><rect
         style="fill:#03e2bc;fill-opacity:1;stroke-width:5.50342;paint-order:fill markers stroke"
         id="rect2-1"
         width="65.179314"
         height="40.131939"
         x="33.201504"
         y="47.775314"
         ry="14.424936" /><g
         id="g4"
         transform="matrix(0.9683699,0,0,1,2.6538726,6.8701063)"><path
           style="fill:#000000;fill-opacity:1;stroke-width:8.13053;paint-order:fill markers stroke"
           id="path2"
           sodipodi:type="arc"
           sodipodi:cx="47.989876"
           sodipodi:cy="57.149994"
           sodipodi:rx="4.3434691"
           sodipodi:ry="4.1396794"
           sodipodi:start="5.0292529"
           sodipodi:end="5.0075376"
           sodipodi:open="true"
           sodipodi:arc-type="arc"
           d="m 49.343249,53.216399 a 4.3434691,4.1396794 0 0 1 2.781152,5.202096 4.3434691,4.1396794 0 0 1 -5.443008,2.678867 4.3434691,4.1396794 0 0 1 -2.84025,-5.17301 4.3434691,4.1396794 0 0 1 5.41217,-2.735033" /><path
           style="fill:#ffffff;fill-opacity:1;stroke-width:0.182895"
           id="path7-3-8-2"
           sodipodi:type="arc"
           sodipodi:cx="48.709698"
           sodipodi:cy="55.762619"
           sodipodi:rx="0.1894915"
           sodipodi:ry="0.17327777"
           sodipodi:start="5.0292529"
           sodipodi:end="5.0075376"
           sodipodi:open="true"
           sodipodi:arc-type="arc"
           d="m 48.768741,55.597967 a 0.1894915,0.17327777 0 0 1 0.121333,0.217749 0.1894915,0.17327777 0 0 1 -0.237461,0.112131 0.1894915,0.17327777 0 0 1 -0.123911,-0.216531 0.1894915,0.17327777 0 0 1 0.236115,-0.114482" /><path
           style="fill:#ffffff;fill-opacity:1;stroke-width:0.281696"
           id="path7-5-7"
           sodipodi:type="arc"
           sodipodi:cx="75.269493"
           sodipodi:cy="-1.9832901"
           sodipodi:rx="0.33660161"
           sodipodi:ry="0.23140669"
           sodipodi:start="5.0292529"
           sodipodi:end="5.0075376"
           sodipodi:open="true"
           sodipodi:arc-type="arc"
           d="m 75.374374,-2.2031767 a 0.33660161,0.23140669 0 0 1 0.215528,0.2907954 0.33660161,0.23140669 0 0 1 -0.421811,0.1497478 0.33660161,0.23140669 0 0 1 -0.220108,-0.2891696 0.33660161,0.23140669 0 0 1 0.419421,-0.1528874"
           transform="matrix(0.68011818,0.73310249,0.82794081,-0.56081549,0,0)" /><path
           style="fill:#ffffff;fill-opacity:1;stroke-width:0.701944"
           id="path7-7-7-9"
           sodipodi:type="arc"
           sodipodi:cx="73.65184"
           sodipodi:cy="16.075571"
           sodipodi:rx="0.74026114"
           sodipodi:ry="0.65335441"
           sodipodi:start="5.0292529"
           sodipodi:end="5.0075376"
           sodipodi:open="true"
           sodipodi:arc-type="arc"
           d="m 73.882497,15.454742 a 0.74026114,0.65335441 0 0 1 0.473994,0.821033 0.74026114,0.65335441 0 0 1 -0.927657,0.422798 0.74026114,0.65335441 0 0 1 -0.484066,-0.816442 0.74026114,0.65335441 0 0 1 0.922401,-0.431663"
           transform="matrix(0.814355,0.58036707,-0.63586764,0.77179813,0,0)" /><path
           style="fill:#000000;fill-opacity:1;stroke-width:7.9375;paint-order:fill markers stroke"
           id="path2-3"
           sodipodi:type="arc"
           sodipodi:cx="82.461624"
           sodipodi:cy="57.228752"
           sodipodi:rx="4.1396794"
           sodipodi:ry="4.1396794"
           sodipodi:start="5.0292529"
           sodipodi:end="5.0075376"
           sodipodi:open="true"
           sodipodi:arc-type="arc"
           d="m 83.751499,53.295157 a 4.1396794,4.1396794 0 0 1 2.650664,5.202096 4.1396794,4.1396794 0 0 1 -5.187629,2.678867 4.1396794,4.1396794 0 0 1 -2.70699,-5.17301 4.1396794,4.1396794 0 0 1 5.158239,-2.735033" /></g><path
         style="fill:#03bb85;fill-opacity:1;stroke-width:7.81343;paint-order:fill markers stroke"
         id="path2-36"
         sodipodi:type="arc"
         sodipodi:cx="40.652561"
         sodipodi:cy="29.84827"
         sodipodi:rx="4.1396794"
         sodipodi:ry="4.0112734"
         sodipodi:start="5.0292529"
         sodipodi:end="5.0075376"
         sodipodi:open="true"
         sodipodi:arc-type="arc"
         d="m 41.942436,26.036689 a 4.1396794,4.0112734 0 0 1 2.650665,5.040736 4.1396794,4.0112734 0 0 1 -5.18763,2.595772 4.1396794,4.0112734 0 0 1 -2.70699,-5.012552 4.1396794,4.0112734 0 0 1 5.158239,-2.650196" /><path
         style="fill:#03bb85;fill-opacity:1;stroke-width:7.81343;paint-order:fill markers stroke"
         id="path2-3-0"
         sodipodi:type="arc"
         sodipodi:cx="92.661369"
         sodipodi:cy="30.014574"
         sodipodi:rx="4.1396794"
         sodipodi:ry="4.0112734"
         sodipodi:start="5.0292529"
         sodipodi:end="5.0075376"
         sodipodi:open="true"
         sodipodi:arc-type="arc"
         d="m 93.951244,26.202993 a 4.1396794,4.0112734 0 0 1 2.650665,5.040736 4.1396794,4.0112734 0 0 1 -5.18763,2.595772 4.1396794,4.0112734 0 0 1 -2.706989,-5.012552 4.1396794,4.0112734 0 0 1 5.158238,-2.650197" /><rect
         style="fill:#03bb85;fill-opacity:1;stroke-width:7.9375;paint-order:fill markers stroke"
         id="rect3-5"
         width="4.0670533"
         height="12.201159"
         x="38.619034"
         y="32.782219"
         ry="0" /><rect
         style="fill:#03bb85;fill-opacity:1;stroke-width:7.9375;paint-order:fill markers stroke"
         id="rect3-8"
         width="4.0670533"
         height="12.201159"
         x="90.648293"
         y="32.987309"
         ry="0" /><path
         style="fill:none;fill-opacity:1;stroke:#000000;stroke-width:4.15238;stroke-linecap:round;stroke-dasharray:none;stroke-opacity:1;paint-order:normal"
         d="M 56.265922,75.090355 C 66.006008,82.06393 76.058861,75.2384 76.058861,75.2384"
         id="path4"
         sodipodi:nodetypes="cc" /><path
         fill="#ffa58c"
         opacity="1"
         stroke="none"
         d="m 37.223275,127.70369 c -3.155844,-2.5589 -6.074118,-5.26445 -7.847718,-8.98708 -0.987828,-2.07338 -1.400777,-4.2671 -0.758028,-6.53368 1.256123,-4.42949 5.967343,-6.32634 9.566843,-4.55063 1.860889,0.918 3.220202,2.33273 4.403562,3.98828 0.106006,0.14828 0.225188,0.28677 0.36201,0.45987 0.594731,-0.76422 1.102184,-1.5392 1.727781,-2.1975 2.008475,-2.11346 4.346411,-3.43327 7.353759,-2.73175 3.53392,0.82435 5.958082,4.75513 5.415572,8.41021 -0.44392,2.99067 -1.94989,5.34976 -3.829245,7.53948 -2.456128,2.86177 -5.437618,5.11541 -8.356565,7.43993 -0.444401,0.35388 -0.909157,0.68747 -1.31645,1.08195 -0.581407,0.56309 -1.058331,0.5594 -1.703499,0.0254 -1.624229,-1.34462 -3.312891,-2.60836 -5.018022,-3.9444 z"
         id="path6"
         style="stroke-width:0.163171" /></g><path
       style="fill:#ffffff;fill-opacity:1;stroke-width:0.172494"
       id="path7-3-8"
       sodipodi:type="arc"
       sodipodi:cx="122.11964"
       sodipodi:cy="100.75803"
       sodipodi:rx="0.17235309"
       sodipodi:ry="0.16945687"
       sodipodi:start="5.0292529"
       sodipodi:end="5.0075376"
       sodipodi:open="true"
       sodipodi:arc-type="arc"
       d="m 122.17334,100.59701 a 0.17235309,0.16945687 0 0 1 0.11036,0.21295 0.17235309,0.16945687 0 0 1 -0.21599,0.10966 0.17235309,0.16945687 0 0 1 -0.1127,-0.21176 0.17235309,0.16945687 0 0 1 0.21476,-0.11196" /><path
       style="fill:#ffffff;fill-opacity:1;stroke-width:0.264579"
       id="path7-5"
       sodipodi:type="arc"
       sodipodi:cx="154.73476"
       sodipodi:cy="26.968081"
       sodipodi:rx="0.31873727"
       sodipodi:ry="0.2155803"
       sodipodi:start="5.0292529"
       sodipodi:end="5.0075376"
       sodipodi:open="true"
       sodipodi:arc-type="arc"
       d="m 154.83407,26.763232 a 0.31873727,0.2155803 0 0 1 0.20409,0.270908 0.31873727,0.2155803 0 0 1 -0.39942,0.139506 0.31873727,0.2155803 0 0 1 -0.20843,-0.269393 0.31873727,0.2155803 0 0 1 0.39716,-0.142431"
       transform="matrix(0.65327653,0.75711939,0.80834258,-0.58871238,0,0)" /><path
       style="fill:#ffffff;fill-opacity:1;stroke-width:0.661216"
       id="path7-7-7"
       sodipodi:type="arc"
       sodipodi:cx="158.61073"
       sodipodi:cy="4.64821"
       sodipodi:rx="0.69077653"
       sodipodi:ry="0.6212672"
       sodipodi:start="5.0292529"
       sodipodi:end="5.0075376"
       sodipodi:open="true"
       sodipodi:arc-type="arc"
       d="m 158.82597,4.0578712 a 0.69077653,0.6212672 0 0 1 0.44231,0.7807107 0.69077653,0.6212672 0 0 1 -0.86565,0.4020339 0.69077653,0.6212672 0 0 1 -0.4517,-0.7763455 0.69077653,0.6212672 0 0 1 0.86074,-0.4104632"
       transform="rotate(37.461492)" /><path
       style="fill:#ffffff;fill-opacity:1;stroke-width:0.264583"
       id="path9"
       sodipodi:type="arc"
       sodipodi:cx="91.372856"
       sodipodi:cy="100.77687"
       sodipodi:rx="0.20563164"
       sodipodi:ry="0.53869694"
       sodipodi:start="5.0292529"
       sodipodi:end="5.0294738"
       sodipodi:open="true"
       sodipodi:arc-type="arc"
       d="m 91.436929,100.26499 a 0.20563164,0.53869694 0 0 1 4.3e-5,4e-5" /><path
       style="fill:#b3b3b3;fill-opacity:1;stroke-width:0.264583"
       id="path10"
       sodipodi:type="arc"
       sodipodi:cx="-53.098309"
       sodipodi:cy="-124.77179"
       sodipodi:rx="0.81673408"
       sodipodi:ry="0.64296085"
       sodipodi:start="5.0292529"
       sodipodi:end="0.23152286"
       sodipodi:open="true"
       sodipodi:arc-type="arc"
       d="m -52.843824,-125.38274 a 0.81673408,0.64296085 0 0 1 0.540457,0.75848"
       transform="rotate(160.46634)"
       inkscape:transform-center-x="-0.045953155"
       inkscape:transform-center-y="-0.032737652" /></g></svg>
